<svg width="479" height="51" viewBox="0 0 479 51" fill="none" xmlns="http://www.w3.org/2000/svg">
<path d="M66.1476 0.619134C84.3952 0.619132 93.519 12.0239 100.362 21.1477C107.205 30.2715 114.048 37.1144 123.171 37.1144C134.576 37.1144 139.138 30.2715 145.981 21.1477C152.824 12.0239 161.948 0.619126 180.195 0.619124C198.443 0.619122 207.567 12.0239 214.41 21.1477C221.252 30.2715 228.095 37.1144 237.219 37.1144C248.624 37.1144 253.186 30.2715 260.029 21.1477C271.433 12.0239 280.557 0.619115 298.805 0.619114C317.052 0.619112 326.176 12.0239 333.019 21.1477C339.862 30.2715 346.705 37.1143 355.829 37.1143C367.233 37.1143 371.795 30.2715 378.638 21.1477C387.762 12.0239 396.886 0.619105 415.133 0.619104C433.381 0.619102 442.505 12.0239 449.348 21.1477C456.19 30.2715 460.752 37.1143 472.157 37.1143C476.719 37.1143 479 39.3953 479 43.9572C479 48.5191 476.719 50.8 472.157 50.8C453.91 50.8001 444.786 39.3953 437.943 30.2715C431.1 21.1477 424.257 14.3048 415.133 14.3048C403.729 14.3048 399.167 21.1477 392.324 30.2715C383.2 39.3953 374.076 50.8001 355.829 50.8001C337.581 50.8001 328.457 39.3953 321.614 30.2715C314.771 21.1477 307.929 14.3048 298.805 14.3048C287.4 14.3048 282.838 21.1477 275.995 30.2715C266.871 39.3953 257.748 50.8001 239.5 50.8001C221.252 50.8001 212.129 39.3953 205.286 30.2715C198.443 21.1477 191.6 14.3048 182.476 14.3048C171.071 14.3048 166.51 21.1477 159.667 30.2715C150.543 39.3953 141.419 50.8001 123.171 50.8001C104.924 50.8001 95.8 39.3953 88.9571 30.2715C82.1143 21.1477 75.2714 14.3048 66.1476 14.3048C54.7428 14.3048 50.1809 21.1477 43.3381 30.2715C34.2143 39.3953 25.0904 50.8001 6.84282 50.8001C2.28092 50.8001 -1.54582e-05 48.5191 -1.5857e-05 43.9572C-1.62558e-05 39.3953 2.28092 37.1144 6.84282 37.1144C18.2476 37.1144 22.8095 30.2715 29.6523 21.1477C38.7762 12.0239 47.9 0.619136 66.1476 0.619134Z" fill="url(#paint0_linear_934_142)"/>
<path d="M66.1476 0.619134C84.3952 0.619132 93.519 12.0239 100.362 21.1477C107.205 30.2715 114.048 37.1144 123.171 37.1144C134.576 37.1144 139.138 30.2715 145.981 21.1477C152.824 12.0239 161.948 0.619126 180.195 0.619124C198.443 0.619122 207.567 12.0239 214.41 21.1477C221.252 30.2715 228.095 37.1144 237.219 37.1144C248.624 37.1144 253.186 30.2715 260.029 21.1477C271.433 12.0239 280.557 0.619115 298.805 0.619114C317.052 0.619112 326.176 12.0239 333.019 21.1477C339.862 30.2715 346.705 37.1143 355.829 37.1143C367.233 37.1143 371.795 30.2715 378.638 21.1477C387.762 12.0239 396.886 0.619105 415.133 0.619104C433.381 0.619102 442.505 12.0239 449.348 21.1477C456.19 30.2715 460.752 37.1143 472.157 37.1143C476.719 37.1143 479 39.3953 479 43.9572C479 48.5191 476.719 50.8 472.157 50.8C453.91 50.8001 444.786 39.3953 437.943 30.2715C431.1 21.1477 424.257 14.3048 415.133 14.3048C403.729 14.3048 399.167 21.1477 392.324 30.2715C383.2 39.3953 374.076 50.8001 355.829 50.8001C337.581 50.8001 328.457 39.3953 321.614 30.2715C314.771 21.1477 307.929 14.3048 298.805 14.3048C287.4 14.3048 282.838 21.1477 275.995 30.2715C266.871 39.3953 257.748 50.8001 239.5 50.8001C221.252 50.8001 212.129 39.3953 205.286 30.2715C198.443 21.1477 191.6 14.3048 182.476 14.3048C171.071 14.3048 166.51 21.1477 159.667 30.2715C150.543 39.3953 141.419 50.8001 123.171 50.8001C104.924 50.8001 95.8 39.3953 88.9571 30.2715C82.1143 21.1477 75.2714 14.3048 66.1476 14.3048C54.7428 14.3048 50.1809 21.1477 43.3381 30.2715C34.2143 39.3953 25.0904 50.8001 6.84282 50.8001C2.28092 50.8001 -1.54582e-05 48.5191 -1.5857e-05 43.9572C-1.62558e-05 39.3953 2.28092 37.1144 6.84282 37.1144C18.2476 37.1144 22.8095 30.2715 29.6523 21.1477C38.7762 12.0239 47.9 0.619136 66.1476 0.619134Z" fill="#0BFF8D"/>
<defs>
<linearGradient id="paint0_linear_934_142" x1="497.494" y1="-106.704" x2="-31.687" y2="194.381" gradientUnits="userSpaceOnUse">
<stop stop-color="#F5F5F5"/>
<stop offset="0.3026" stop-color="#5380DA"/>
<stop offset="0.7827" stop-color="#1FDBA3"/>
<stop offset="1" stop-color="#0BFF8D"/>
</linearGradient>
</defs>
</svg>
