<svg width="215" height="42" viewBox="0 0 215 42" fill="none" xmlns="http://www.w3.org/2000/svg">
<path d="M55.1 7.79868e-05C70.3 7.6658e-05 77.9 9.50008 83.6 17.1001C89.3 24.7001 95 30.4001 102.6 30.4001C112.1 30.4001 115.9 24.7001 121.6 17.1001C127.3 9.50007 134.9 7.10105e-05 150.1 6.96817e-05C165.3 6.83528e-05 172.9 9.50007 178.6 17.1001C184.3 24.7001 190 30.4001 197.6 30.4001C207.1 30.4001 210.9 24.7001 216.6 17.1001C226.1 9.50006 233.7 6.23731e-05 248.9 6.10443e-05C264.1 5.97155e-05 271.7 9.50006 277.4 17.1001C283.1 24.7001 288.8 30.4001 296.4 30.4001C305.9 30.4001 309.7 24.7001 315.4 17.1001C323 9.50006 330.6 5.39019e-05 345.8 5.2573e-05C361 5.12442e-05 368.6 9.50005 374.3 17.1001C380 24.7001 383.8 30.4 393.3 30.4C397.1 30.4 399 32.3 399 36.1C399 39.9 397.1 41.8 393.3 41.8C378.1 41.8001 370.5 32.3001 364.8 24.7001C359.1 17.1001 353.4 11.4001 345.8 11.4001C336.3 11.4001 332.5 17.1001 326.8 24.7001C319.2 32.3001 311.6 41.8001 296.4 41.8001C281.2 41.8001 273.6 32.3001 267.9 24.7001C262.2 17.1001 256.5 11.4001 248.9 11.4001C239.4 11.4001 235.6 17.1001 229.9 24.7001C222.3 32.3001 214.7 41.8001 199.5 41.8001C184.3 41.8001 176.7 32.3001 171 24.7001C165.3 17.1001 159.6 11.4001 152 11.4001C142.5 11.4001 138.7 17.1001 133 24.7001C125.4 32.3001 117.8 41.8001 102.6 41.8001C87.4 41.8001 79.8 32.3001 74.1 24.7001C68.4 17.1001 62.7 11.4001 55.1 11.4001C45.6 11.4001 41.8 17.1001 36.1 24.7001C28.5 32.3001 20.9 41.8001 5.69999 41.8001C1.89999 41.8001 -1.66103e-07 39.9001 -4.9831e-07 36.1001C-8.30516e-07 32.3001 1.89998 30.4001 5.69998 30.4001C15.2 30.4001 19 24.7001 24.7 17.1001C32.3 9.50008 39.9 7.93157e-05 55.1 7.79868e-05Z" fill="url(#paint0_linear_902_182)"/>
<defs>
<linearGradient id="paint0_linear_902_182" x1="414.405" y1="-89.3987" x2="-26.3948" y2="161.401" gradientUnits="userSpaceOnUse">
<stop stop-color="#F5F5F5"/>
<stop offset="0.3026" stop-color="#5380DA"/>
<stop offset="0.7827" stop-color="#1FDBA3"/>
<stop offset="1" stop-color="#0BFF8D"/>
</linearGradient>
</defs>
</svg>
